<?xml version="1.0" encoding="UTF-8"?>
<svg width="12px" height="19px" viewBox="0 0 12 19" version="1.1" xmlns="http://www.w3.org/2000/svg" xmlns:xlink="http://www.w3.org/1999/xlink">
    <!-- Generator: Sketch 41 (35326) - http://www.bohemiancoding.com/sketch -->
    <title>Shape</title>
    <desc>Created with Sketch.</desc>
    <defs></defs>
    <g id="Symbols" stroke="none" stroke-width="1" fill="none" fill-rule="evenodd">
        <g id="flowers" transform="translate(-84.000000, -368.000000)" fill="#A7A7A7">
            <g id="Group-21">
                <path d="M96,379.082938 C96,379.082938 91.8,379.543316 90,382.948695 L90,378.274064 C91.2796875,378.160992 92.471475,377.513285 93.1136625,376.454555 C94.13205,374.776506 95.04375,369.581787 93.2871,368.784492 C93.1159875,368.707379 92.91915,368.67142 92.7034875,368.67142 C92.282775,368.67142 91.7882625,368.807092 91.2597375,369.036131 C90.7383,368.408797 90.16875,368 89.6004,368 C89.03205,368 88.4625,368.408797 87.941025,369.036131 C87.4125,368.807092 86.9179875,368.67142 86.497275,368.67142 C86.2804875,368.67142 86.084775,368.707379 85.9136625,368.784492 C84.1570125,369.58175 85.06875,374.776469 86.0871,376.454555 C86.103525,376.481793 86.121075,376.508475 86.1375,376.535156 L86.1375,376.533412 C86.5008,377.095842 87.0492375,377.576557 87.7582125,377.898369 C88.2211125,378.10826 88.709775,378.231203 89.2008,378.274102 L89.2008,381.577949 C87.5730375,379.301549 84,377.933697 84,377.933697 C85.6769625,382.851877 88.00665,384.509033 89.2008,384.618654 L89.2008,387 L90,387 L90,386.178361 C91.241025,385.742326 93.7242375,384.027725 96,379.082938 L96,379.082938 Z M87.1417606,381.912527 C86.5569334,381.372805 85.7721275,380.464327 85,379 C85.4113801,379.198965 85.8531802,379.432608 86.2911323,379.698126 C87.1797553,380.237813 87.863296,380.795324 88.3215011,381.356089 C88.7784505,381.914153 89.0025303,382.454325 88.9999785,383 C88.6379753,382.939435 87.9582423,382.664711 87.1417606,381.912527 L87.1417606,381.912527 Z M89.0559079,369.469703 C89.4142474,369.17153 89.7572985,369 90,369 C90.2427015,369 90.5857526,369.17153 90.9440921,369.469703 C90.9619013,369.485475 90.9809303,369.502224 91,369.518468 C90.6683744,369.661893 90.3329267,369.824559 90,370 C89.6670733,369.824528 89.3303651,369.661893 89,369.517964 C89.0190697,369.501719 89.0368383,369.485475 89.0559079,369.469703 L89.0559079,369.469703 Z M86.3453703,372.735763 C86.2945785,372.822907 86.2493322,372.91118 86.207406,373 C86.1875202,372.89179 86.1687647,372.783034 86.1511041,372.673695 C85.9469127,371.40831 85.9501976,370.285321 86.1577445,369.591672 C86.2460473,369.297804 86.3652561,369.101904 86.4943901,369.040419 C86.550692,369.014214 86.6323544,369 86.7306178,369 L86.7306178,369 L86.7306178,369 C86.95579,369 87.367493,369.07231 88.0452347,369.416292 C88.3454643,369.56831 88.6666746,369.759107 89,369.982342 C87.817802,370.911727 86.7692238,372.007964 86.3453703,372.735763 L86.3453703,372.735763 Z M86.6423604,375.961704 C86.3896895,375.682932 86.2068468,375.369548 86.1009121,375.03016 C85.9087913,374.414326 85.9926299,373.761555 86.3384548,373.19134 C86.7471772,372.515482 87.8487046,371.434449 89.0166322,370.56352 C89.6547371,370.087941 90.2858741,369.693182 90.8424506,369.421908 C91.5574261,369.073285 91.9917473,369 92.22929,369 C92.3329518,369 92.4191006,369.014443 92.4784956,369.040964 C92.6146867,369.103279 92.7404819,369.301268 92.8336359,369.599655 C93.0525105,370.302662 93.0560131,371.440802 92.8406038,372.723259 C92.648483,373.872369 92.3003106,374.983433 91.9556408,375.553648 C91.6913071,375.990553 91.2884346,376.355909 90.792371,376.609859 C90.2951895,376.865508 89.7246026,377 89.1435452,377 C88.624193,377 88.1071884,376.889148 87.6460761,376.680263 C87.2513639,376.500189 86.912507,376.258355 86.6423604,375.961704 L86.6423604,375.961704 Z M91.2460296,384.04377 C90.7465703,384.531697 90.3188822,384.826788 90,385 C90.2502534,383.126788 91.1393864,381.679195 92.6504697,380.688264 C93.1161384,380.382824 93.5839359,380.160536 94,380 C93.6430695,380.723519 93.2713726,381.386949 92.8859566,381.983488 C92.357978,382.802871 91.8057039,383.495791 91.2460296,384.04377 L91.2460296,384.04377 Z" id="Shape"></path>
            </g>
        </g>
    </g>
</svg>