<?xml version="1.0" encoding="UTF-8"?>
<svg width="5px" height="18px" viewBox="0 0 5 18" version="1.1" xmlns="http://www.w3.org/2000/svg" xmlns:xlink="http://www.w3.org/1999/xlink">
    <!-- Generator: Sketch 41 (35326) - http://www.bohemiancoding.com/sketch -->
    <title>Shape</title>
    <desc>Created with Sketch.</desc>
    <defs></defs>
    <g id="Symbols" stroke="none" stroke-width="1" fill="none" fill-rule="evenodd">
        <g id="flowers" transform="translate(-198.000000, -369.000000)" fill="#9D9D9D">
            <g id="Group-21">
                <path d="M200.386075,369 C200.330528,369 200.267759,369.031106 200.212212,369.086653 L198.059763,371.968436 C197.948669,372.079531 197.99755,372.193958 198.164191,372.193958 L199.552868,372.193958 L199.552868,383.303375 L198.164191,383.303375 C197.99755,383.303375 197.948669,383.417802 198.059763,383.528896 L200.212212,386.410679 C200.323307,386.521774 200.448288,386.521774 200.559382,386.410679 L202.711831,383.528896 C202.822926,383.417802 202.7746,383.303375 202.607403,383.303375 L201.218726,383.303375 L201.218726,372.193958 L202.607403,372.193958 C202.774044,372.193958 202.82237,372.079531 202.711831,371.968436 L200.559382,369.086653 C200.503835,369.031106 200.441066,369 200.385519,369 L200.386075,369 Z" id="Shape"></path>
            </g>
        </g>
    </g>
</svg>